<svg xmlns="http://www.w3.org/2000/svg" viewBox="0 0 32 32">
  <defs>
    <linearGradient id="bg" x1="0" y1="0" x2="1" y2="1">
      <stop offset="0%" stop-color="#6366F1"/>
      <stop offset="100%" stop-color="#3B82F6"/>
    </linearGradient>
    <linearGradient id="accent" x1="0" y1="0" x2="0" y2="1">
      <stop offset="0%" stop-color="#E0E7FF"/>
      <stop offset="100%" stop-color="#A5B4FC"/>
    </linearGradient>
  </defs>
  <!-- Rounded square background -->
  <rect width="32" height="32" rx="7" fill="url(#bg)"/>
  <!-- Left curly brace "{" -->
  <path d="M11.5 8.5C11.5 8.5 9.5 8.5 9.5 10.5L9.5 13.5C9.5 14.5 8 15.5 8 16C8 16.5 9.5 17.5 9.5 18.5L9.5 21.5C9.5 23.5 11.5 23.5 11.5 23.5" fill="none" stroke="url(#accent)" stroke-width="2" stroke-linecap="round" stroke-linejoin="round"/>
  <!-- Right curly brace "}" -->
  <path d="M20.5 8.5C20.5 8.5 22.5 8.5 22.5 10.5L22.5 13.5C22.5 14.5 24 15.5 24 16C24 16.5 22.5 17.5 22.5 18.5L22.5 21.5C22.5 23.5 20.5 23.5 20.5 23.5" fill="none" stroke="url(#accent)" stroke-width="2" stroke-linecap="round" stroke-linejoin="round"/>
  <!-- Center decoder slash "/" -->
  <line x1="17.5" y1="11" x2="14.5" y2="21" stroke="#FBBF24" stroke-width="2" stroke-linecap="round"/>
</svg>
